<svg version="1.1" id="Layer_1" xmlns="http://www.w3.org/2000/svg" xmlns:xlink="http://www.w3.org/1999/xlink" x="0px" y="0px"
	 width="100%" viewBox="0 0 214 186" enable-background="new 0 0 214 186" xml:space="preserve">
<path fill="#FEFEFF" opacity="1.000000" stroke="none" 
	d="
M134.000000,187.000000 
	C89.333336,187.000000 45.166672,187.000000 1.000006,187.000000 
	C1.000004,125.000008 1.000004,63.000011 1.000002,1.000014 
	C72.333321,1.000010 143.666641,1.000010 214.999969,1.000005 
	C214.999985,62.999985 214.999985,124.999969 215.000000,186.999969 
	C188.166672,187.000000 161.333328,187.000000 134.000000,187.000000 
M100.721611,129.012222 
	C99.394638,134.956253 98.191391,140.931320 96.710197,146.836670 
	C94.741013,154.687622 92.555191,162.484222 90.348022,170.731796 
	C95.807457,172.218765 100.700974,173.551605 106.014473,174.998825 
	C110.184860,159.752869 114.254379,144.875656 118.797562,130.000671 
	C119.113350,130.001404 119.429146,130.001846 120.032509,130.737122 
	C123.628632,143.922134 127.224754,157.107147 130.924393,170.671707 
	C136.461472,169.214386 141.362869,167.924362 146.830780,166.485245 
	C142.482605,150.882050 138.227661,135.613464 134.845367,120.169701 
	C138.838821,123.892418 142.913071,127.532837 146.807404,131.356506 
	C153.183472,137.616898 159.442551,143.996475 165.561920,150.136124 
	C169.611664,146.086823 173.212769,142.486115 177.274841,138.424500 
	C166.333359,127.501366 155.328903,116.515350 144.324463,105.529343 
	C144.467224,105.178535 144.610001,104.827736 144.752777,104.476936 
	C158.545700,108.073502 172.338638,111.670067 186.344131,115.322060 
	C187.804001,109.687843 189.072174,104.793526 190.395752,99.685349 
	C174.546677,95.407196 159.366150,91.309509 144.185623,87.211823 
	C144.251862,86.872482 144.318100,86.533142 144.384338,86.193802 
	C158.266159,82.451805 172.147995,78.709801 186.287460,74.898354 
	C184.744492,69.383728 183.379990,64.506958 181.923660,59.302025 
	C166.079666,63.468845 150.900848,67.460732 135.722015,71.452614 
	C135.496780,71.054260 135.271545,70.655899 135.046295,70.257545 
	C145.176025,60.084057 155.305740,49.910572 164.730377,40.445221 
	C161.166885,36.396179 157.809631,32.581486 153.495865,27.679935 
	C142.267151,39.223148 131.383087,50.412064 119.627533,62.496880 
	C123.678314,47.331928 127.387375,33.446281 131.178589,19.253075 
	C125.754143,17.782505 120.823868,16.445906 115.271324,14.940611 
	C111.115753,31.043211 107.020157,46.913414 102.225929,62.626137 
	C101.768700,61.597153 101.167755,60.607162 100.876366,59.533184 
	C97.833961,48.319527 94.856262,37.088333 91.820770,25.872782 
	C91.279396,23.872498 90.555557,21.921595 89.862030,19.781414 
	C84.398254,21.318037 79.531120,22.686859 74.399223,24.130144 
	C78.579826,39.918018 82.579292,55.021839 86.578751,70.125656 
	C85.967957,70.503029 85.357155,70.880409 84.746353,71.257782 
	C74.616089,61.107952 64.485825,50.958126 54.773933,41.227482 
	C51.285164,44.452641 47.528561,47.925392 43.542648,51.610130 
	C53.854637,61.925529 63.973518,72.001556 74.018600,82.150635 
	C75.378540,83.524658 76.368187,85.265198 76.742279,86.324211 
	C62.839802,82.637489 48.937321,78.950768 34.693813,75.173607 
	C33.211933,80.842583 31.936579,85.721481 30.545233,91.044113 
	C46.507954,95.143219 61.776825,99.064148 76.913124,103.738785 
	C72.353134,105.155365 67.825806,106.689873 63.226311,107.963776 
	C53.861084,110.557640 44.456924,113.010925 34.743652,115.609100 
	C36.261803,121.111687 37.609585,125.996773 39.037178,131.171127 
	C40.883553,130.738586 42.311474,130.443054 43.718315,130.068359 
	C55.747433,126.864540 67.763985,123.612862 79.809235,120.471123 
	C81.485291,120.033958 83.297112,120.117355 84.981964,120.649796 
	C75.088905,130.486252 65.195847,140.322723 55.214348,150.247116 
	C59.281704,154.236465 63.030598,157.913467 66.624245,161.438202 
	C77.664330,150.605026 88.803551,139.674576 100.721611,129.012222 
z"/>
<path fill="#3A7CFF" opacity="1.000000" stroke="none" 
	d="
M102.924553,62.783615 
	C107.020157,46.913414 111.115753,31.043211 115.271324,14.940611 
	C120.823868,16.445906 125.754143,17.782505 131.178589,19.253075 
	C127.387375,33.446281 123.678314,47.331928 119.627533,62.496880 
	C131.383087,50.412064 142.267151,39.223148 153.495865,27.679935 
	C157.809631,32.581486 161.166885,36.396179 164.730377,40.445221 
	C155.305740,49.910572 145.176025,60.084057 135.046295,70.257545 
	C135.271545,70.655899 135.496780,71.054260 135.722015,71.452614 
	C150.900848,67.460732 166.079666,63.468845 181.923660,59.302025 
	C183.379990,64.506958 184.744492,69.383728 186.287460,74.898354 
	C172.147995,78.709801 158.266159,82.451805 144.384338,86.193802 
	C144.318100,86.533142 144.251862,86.872482 144.185623,87.211823 
	C159.366150,91.309509 174.546677,95.407196 190.395752,99.685349 
	C189.072174,104.793526 187.804001,109.687843 186.344131,115.322060 
	C172.338638,111.670067 158.545700,108.073502 144.752777,104.476936 
	C144.610001,104.827736 144.467224,105.178535 144.324463,105.529343 
	C155.328903,116.515350 166.333359,127.501366 177.274841,138.424500 
	C173.212769,142.486115 169.611664,146.086823 165.561920,150.136124 
	C159.442551,143.996475 153.183472,137.616898 146.807404,131.356506 
	C142.913071,127.532837 138.838821,123.892418 134.428482,120.273491 
	C134.011597,120.377281 134.022690,120.372154 134.337372,120.093597 
	C135.428802,118.386360 136.068344,116.860191 137.003616,115.544182 
	C145.637848,103.395042 145.410645,87.817886 136.118988,76.137695 
	C127.600349,65.429222 116.095833,62.622711 103.032242,63.896145 
	C102.974365,63.277889 102.949463,63.030750 102.924553,62.783615 
z"/>
<path fill="#FDFEFF" opacity="1.000000" stroke="none" 
	d="
M103.065216,64.267265 
	C116.095833,62.622711 127.600349,65.429222 136.118988,76.137695 
	C145.410645,87.817886 145.637848,103.395042 137.003616,115.544182 
	C136.068344,116.860191 135.428802,118.386360 134.155472,119.832123 
	C129.630600,122.240402 125.550018,124.550400 121.614197,127.085167 
	C120.731178,127.653847 120.354637,129.008957 119.744934,130.002029 
	C119.429146,130.001846 119.113350,130.001404 118.389664,129.546387 
	C111.983955,128.851288 105.986145,128.610458 99.710228,128.144623 
	C94.940315,124.954742 90.448502,121.989883 85.969650,118.669388 
	C83.212883,113.208916 80.443153,108.104088 77.899261,102.582550 
	C78.353081,97.093239 78.581062,92.020638 79.024750,86.680267 
	C83.491829,75.060669 91.754753,68.024628 103.065216,64.267265 
z"/>
<path fill="#3C7EFF" opacity="1.000000" stroke="none" 
	d="
M103.032242,63.896145 
	C91.754753,68.024628 83.491829,75.060669 78.857727,86.694534 
	C78.144066,87.017723 77.828827,86.970871 77.529289,86.836021 
	C76.368187,85.265198 75.378540,83.524658 74.018600,82.150635 
	C63.973518,72.001556 53.854637,61.925529 43.542648,51.610130 
	C47.528561,47.925392 51.285164,44.452641 54.773933,41.227482 
	C64.485825,50.958126 74.616089,61.107952 84.746353,71.257782 
	C85.357155,70.880409 85.967957,70.503029 86.578751,70.125656 
	C82.579292,55.021839 78.579826,39.918018 74.399223,24.130144 
	C79.531120,22.686859 84.398254,21.318037 89.862030,19.781414 
	C90.555557,21.921595 91.279396,23.872498 91.820770,25.872782 
	C94.856262,37.088333 97.833961,48.319527 100.876366,59.533184 
	C101.167755,60.607162 101.768700,61.597153 102.575241,62.704876 
	C102.949463,63.030750 102.974365,63.277889 103.032242,63.896145 
z"/>
<path fill="#3A7DFF" opacity="1.000000" stroke="none" 
	d="
M77.673424,102.999260 
	C80.443153,108.104088 83.212883,113.208916 85.990417,118.653671 
	C85.998222,118.993591 86.036552,118.958328 85.705391,119.013313 
	C85.239754,119.392441 85.105278,119.716576 84.988663,120.019592 
	C85.006531,119.998466 85.046089,119.959778 85.046089,119.959778 
	C83.297112,120.117355 81.485291,120.033958 79.809235,120.471123 
	C67.763985,123.612862 55.747433,126.864540 43.718315,130.068359 
	C42.311474,130.443054 40.883553,130.738586 39.037178,131.171127 
	C37.609585,125.996773 36.261803,121.111687 34.743652,115.609100 
	C44.456924,113.010925 53.861084,110.557640 63.226311,107.963776 
	C67.825806,106.689873 72.353134,105.155365 77.136276,103.366104 
	C77.359436,102.993423 77.673424,102.999260 77.673424,102.999260 
z"/>
<path fill="#3A7CFF" opacity="1.000000" stroke="none" 
	d="
M77.899261,102.582550 
	C77.673424,102.999260 77.359436,102.993423 77.202568,102.989250 
	C61.776825,99.064148 46.507954,95.143219 30.545233,91.044113 
	C31.936579,85.721481 33.211933,80.842583 34.693813,75.173607 
	C48.937321,78.950768 62.839802,82.637489 77.135788,86.580116 
	C77.828827,86.970871 78.144066,87.017723 78.642029,86.962296 
	C78.581062,92.020638 78.353081,97.093239 77.899261,102.582550 
z"/>
<path fill="#3A7DFF" opacity="1.000000" stroke="none" 
	d="
M119.888718,130.369568 
	C120.354637,129.008957 120.731178,127.653847 121.614197,127.085167 
	C125.550018,124.550400 129.630600,122.240402 133.840790,120.110672 
	C134.022690,120.372154 134.011597,120.377281 133.992157,120.361084 
	C138.227661,135.613464 142.482605,150.882050 146.830780,166.485245 
	C141.362869,167.924362 136.461472,169.214386 130.924393,170.671707 
	C127.224754,157.107147 123.628632,143.922134 119.888718,130.369568 
z"/>
<path fill="#3A7CFF" opacity="1.000000" stroke="none" 
	d="
M85.977455,119.009308 
	C90.448502,121.989883 94.940315,124.954742 99.702271,128.238647 
	C99.972412,128.557678 99.942780,128.744125 99.942780,128.744110 
	C88.803551,139.674576 77.664330,150.605026 66.624245,161.438202 
	C63.030598,157.913467 59.281704,154.236465 55.214348,150.247116 
	C65.195847,140.322723 75.088905,130.486252 85.014023,120.304787 
	C85.046089,119.959778 85.006531,119.998466 85.295952,120.004852 
	C85.735764,119.660263 85.886154,119.309296 86.036552,118.958328 
	C86.036552,118.958328 85.998222,118.993591 85.977455,119.009308 
z"/>
<path fill="#3A7DFF" opacity="1.000000" stroke="none" 
	d="
M100.332199,128.878174 
	C99.942780,128.744125 99.972412,128.557678 99.980370,128.463654 
	C105.986145,128.610458 111.983955,128.851288 118.152832,129.545273 
	C114.254379,144.875656 110.184860,159.752869 106.014473,174.998825 
	C100.700974,173.551605 95.807457,172.218765 90.348022,170.731796 
	C92.555191,162.484222 94.741013,154.687622 96.710197,146.836670 
	C98.191391,140.931320 99.394638,134.956253 100.332199,128.878174 
z"/>
<path fill="#FEFEFF" opacity="1.000000" stroke="none" 
	d="
M85.705391,119.013313 
	C85.886154,119.309296 85.735764,119.660263 85.278091,120.025970 
	C85.105278,119.716576 85.239754,119.392441 85.705391,119.013313 
z"/>
</svg>